<svg width="20" height="20" viewBox="0 0 20 20" fill="none" xmlns="http://www.w3.org/2000/svg">
<path fill-rule="evenodd" clip-rule="evenodd" d="M14.2665 6.30014V6.30014C13.9842 6.30014 13.7284 6.13743 13.6081 5.88316C13.3909 5.42304 13.1147 4.83503 12.9512 4.51491C12.7098 4.0389 12.3186 3.76192 11.7767 3.75814C11.7676 3.75738 8.23197 3.75738 8.22289 3.75814C7.68104 3.76192 7.29054 4.0389 7.04838 4.51491C6.88567 4.83503 6.60945 5.42304 6.39225 5.88316C6.27193 6.13743 6.01538 6.30014 5.73386 6.30014V6.30014C4.22334 6.30014 2.99963 7.52385 2.99963 9.03361V13.5258C2.99963 15.0348 4.22334 16.2593 5.73386 16.2593H14.2665C15.7763 16.2593 17 15.0348 17 13.5258V9.03361C17 7.52385 15.7763 6.30014 14.2665 6.30014Z" stroke="#28519E" stroke-width="1.5" stroke-linecap="round" stroke-linejoin="round"/>
<path fill-rule="evenodd" clip-rule="evenodd" d="M7.59444 11.0108C7.59368 12.3375 8.67662 13.4227 10.001 13.4219C11.3231 13.4204 12.403 12.3397 12.4053 11.0161C12.4075 9.68724 11.3284 8.6043 10.0025 8.60278C8.66906 8.60127 7.58384 9.70238 7.59444 11.0108Z" stroke="#28519E" stroke-width="1.5" stroke-linecap="round" stroke-linejoin="round"/>
<path d="M13.71 9.2403C13.6369 9.2328 13.5646 9.21372 13.4838 9.18116C13.3938 9.1412 13.3159 9.09035 13.2406 9.01385C13.1053 8.86994 13.027 8.68175 13.027 8.48761C13.027 8.38449 13.0481 8.28228 13.0892 8.18969C13.1305 8.09588 13.1794 8.01675 13.2678 7.93068C13.335 7.87213 13.4039 7.82501 13.498 7.78354C13.7772 7.67292 14.1092 7.73902 14.3168 7.94646C14.379 8.00774 14.4314 8.08169 14.4604 8.14405L14.4776 8.18827C14.5194 8.28228 14.5405 8.38449 14.5405 8.48761C14.5405 8.68568 14.4632 8.86887 14.3197 9.02135C14.1956 9.14625 14.0326 9.22305 13.8588 9.2403L13.7838 9.24402L13.71 9.2403Z" fill="#28519E"/>
</svg>
